<svg xmlns="http://www.w3.org/2000/svg" width="56" height="55" fill="none"><path fill="#fff" d="M24.493 29.122v-1.285c0-.362.282-.643.643-.643H39.28c.361 0 .643.281.643.643v1.285a.635.635 0 0 1-.643.643H25.136a.635.635 0 0 1-.643-.643ZM25.136 32.337H39.28c.361 0 .643.281.643.643v1.285a.635.635 0 0 1-.643.643H25.136a.635.635 0 0 1-.643-.643V32.98c0-.362.282-.643.643-.643ZM25.136 37.48H39.28c.361 0 .643.28.643.642v1.286a.635.635 0 0 1-.643.643H25.136a.635.635 0 0 1-.643-.643v-1.286c0-.361.282-.642.643-.642Z"/><path fill="#fff" fill-rule="evenodd" d="M16.779 21.065a7.415 7.415 0 1 1 7.173-9.3h12.756c1.064 0 2.55.623 3.294 1.366L46.27 19.4c.743.743 1.366 2.23 1.366 3.295v23.143a1.93 1.93 0 0 1-1.928 1.928h-27a1.93 1.93 0 0 1-1.93-1.928V21.065Zm2.571-.458a7.421 7.421 0 0 0 4.813-6.27h10.616v8.357a1.93 1.93 0 0 0 1.928 1.928h8.358v20.572H19.35V20.607Zm18.824-5.668c-.14-.14-.482-.321-.824-.442v7.554h7.554c-.12-.341-.301-.683-.442-.824l-6.288-6.288Zm-20.395-.29h4v-2h-4v-4h-2v4h-4v2h4v4h2v-4Z" clip-rule="evenodd"/></svg>